<svg width="18" height="21" viewBox="0 0 18 21" fill="none" xmlns="http://www.w3.org/2000/svg">
<g filter="url(#filter0_dd_947_483)">
<path fill-rule="evenodd" clip-rule="evenodd" d="M3.69666 3.69685C6.62579 0.767717 11.3741 0.767717 14.3033 3.69685C17.2324 6.626 17.2324 11.3743 14.3033 14.3034C11.3747 17.232 6.62581 17.2326 3.69666 14.3034C0.767502 11.3743 0.768061 6.62544 3.69666 3.69685ZM11.2587 7.57879C11.4899 7.34755 11.4899 6.97265 11.2587 6.74142C11.0275 6.5102 10.6526 6.51019 10.4213 6.74142L8.9989 8.16385L7.57541 6.74036C7.34418 6.50913 6.96927 6.50914 6.73805 6.74036C6.50682 6.97159 6.50681 7.34649 6.73805 7.57772L8.16153 9.00121L6.74092 10.4218C6.50969 10.653 6.50969 11.028 6.74092 11.2592C6.97214 11.4904 7.34706 11.4904 7.57828 11.2592L8.9989 9.83857L10.4222 11.2619C10.6535 11.4931 11.0284 11.4931 11.2596 11.2619C11.4908 11.0307 11.4908 10.6558 11.2596 10.4246L9.83626 9.00121L11.2587 7.57879Z" fill="#F03D3D"/>
</g>
<defs>
<filter id="filter0_dd_947_483" x="-1.5" y="0" width="21" height="22.5" filterUnits="userSpaceOnUse" color-interpolation-filters="sRGB">
<feFlood flood-opacity="0" result="BackgroundImageFix"/>
<feColorMatrix in="SourceAlpha" type="matrix" values="0 0 0 0 0 0 0 0 0 0 0 0 0 0 0 0 0 0 127 0" result="hardAlpha"/>
<feMorphology radius="1.5" operator="erode" in="SourceAlpha" result="effect1_dropShadow_947_483"/>
<feOffset dy="3"/>
<feGaussianBlur stdDeviation="1.5"/>
<feComposite in2="hardAlpha" operator="out"/>
<feColorMatrix type="matrix" values="0 0 0 0 0 0 0 0 0 0 0 0 0 0 0 0 0 0 0.04 0"/>
<feBlend mode="normal" in2="BackgroundImageFix" result="effect1_dropShadow_947_483"/>
<feColorMatrix in="SourceAlpha" type="matrix" values="0 0 0 0 0 0 0 0 0 0 0 0 0 0 0 0 0 0 127 0" result="hardAlpha"/>
<feMorphology radius="0.5" operator="erode" in="SourceAlpha" result="effect2_dropShadow_947_483"/>
<feOffset dy="1"/>
<feGaussianBlur stdDeviation="0.5"/>
<feComposite in2="hardAlpha" operator="out"/>
<feColorMatrix type="matrix" values="0 0 0 0 0 0 0 0 0 0 0 0 0 0 0 0 0 0 0.04 0"/>
<feBlend mode="normal" in2="effect1_dropShadow_947_483" result="effect2_dropShadow_947_483"/>
<feBlend mode="normal" in="SourceGraphic" in2="effect2_dropShadow_947_483" result="shape"/>
</filter>
</defs>
</svg>
