<svg width="24" height="27" viewBox="0 0 24 27" fill="none" xmlns="http://www.w3.org/2000/svg">
<g filter="url(#filter0_dd_947_1614)">
<path d="M18.4954 14.0048C13.8606 15.5361 12.3172 17.0798 10.7859 21.7143C10.6599 22.0953 10.1212 22.0953 9.99521 21.7143C8.46397 17.0795 6.92029 15.5361 2.28576 14.0048C1.90475 13.8789 1.90475 13.3401 2.28576 13.2141C6.92056 11.6829 8.46391 10.1392 9.99521 5.50468C10.1212 5.12367 10.66 5.12367 10.7859 5.50468C12.3172 10.1395 13.8608 11.6828 18.4954 13.2141C18.8764 13.3401 18.8764 13.8789 18.4954 14.0048Z" fill="url(#paint0_linear_947_1614)"/>
<path d="M21.8571 6.39349C19.5403 7.15861 18.768 7.93089 18.0019 10.2487C17.9394 10.4392 17.67 10.4392 17.6065 10.2487C16.8414 7.93189 16.0691 7.15966 13.7513 6.39349C13.5608 6.33101 13.5608 6.06164 13.7513 5.99813C16.0681 5.23301 16.8403 4.46073 17.6065 2.14288C17.669 1.95237 17.9384 1.95237 18.0019 2.14288C18.767 4.45973 19.5393 5.23196 21.8571 5.99813C22.0476 6.06061 22.0476 6.32998 21.8571 6.39349Z" fill="url(#paint1_linear_947_1614)"/>
</g>
<defs>
<filter id="filter0_dd_947_1614" x="-1.5" y="0" width="27" height="28.5" filterUnits="userSpaceOnUse" color-interpolation-filters="sRGB">
<feFlood flood-opacity="0" result="BackgroundImageFix"/>
<feColorMatrix in="SourceAlpha" type="matrix" values="0 0 0 0 0 0 0 0 0 0 0 0 0 0 0 0 0 0 127 0" result="hardAlpha"/>
<feMorphology radius="1.5" operator="erode" in="SourceAlpha" result="effect1_dropShadow_947_1614"/>
<feOffset dy="3"/>
<feGaussianBlur stdDeviation="1.5"/>
<feComposite in2="hardAlpha" operator="out"/>
<feColorMatrix type="matrix" values="0 0 0 0 0 0 0 0 0 0 0 0 0 0 0 0 0 0 0.04 0"/>
<feBlend mode="normal" in2="BackgroundImageFix" result="effect1_dropShadow_947_1614"/>
<feColorMatrix in="SourceAlpha" type="matrix" values="0 0 0 0 0 0 0 0 0 0 0 0 0 0 0 0 0 0 127 0" result="hardAlpha"/>
<feMorphology radius="0.5" operator="erode" in="SourceAlpha" result="effect2_dropShadow_947_1614"/>
<feOffset dy="1"/>
<feGaussianBlur stdDeviation="0.5"/>
<feComposite in2="hardAlpha" operator="out"/>
<feColorMatrix type="matrix" values="0 0 0 0 0 0 0 0 0 0 0 0 0 0 0 0 0 0 0.04 0"/>
<feBlend mode="normal" in2="effect1_dropShadow_947_1614" result="effect2_dropShadow_947_1614"/>
<feBlend mode="normal" in="SourceGraphic" in2="effect2_dropShadow_947_1614" result="shape"/>
</filter>
<linearGradient id="paint0_linear_947_1614" x1="12" y1="2" x2="12" y2="22.0001" gradientUnits="userSpaceOnUse">
<stop stop-color="#5E64FF" stop-opacity="0.2"/>
<stop offset="1" stop-color="#5E64FF"/>
</linearGradient>
<linearGradient id="paint1_linear_947_1614" x1="12" y1="2" x2="12" y2="22.0001" gradientUnits="userSpaceOnUse">
<stop stop-color="#5E64FF" stop-opacity="0.2"/>
<stop offset="1" stop-color="#5E64FF"/>
</linearGradient>
</defs>
</svg>
